<?xml version="1.0" standalone="no"?>
<!DOCTYPE svg PUBLIC "-//W3C//DTD SVG 20010904//EN"
 "http://www.w3.org/TR/2001/REC-SVG-20010904/DTD/svg10.dtd">
<svg version="1.0" xmlns="http://www.w3.org/2000/svg"
 width="24.000000pt" height="24.000000pt" viewBox="0 0 24.000000 24.000000"
 preserveAspectRatio="xMidYMid meet">

<g transform="translate(0.000000,24.000000) scale(0.100000,-0.100000)"
fill="#000000" stroke="none">
<path d="M58 226 c-46 -14 -56 -24 -33 -33 10 -3 27 -15 37 -25 25 -25 82 -24
108 2 30 30 33 25 27 -30 -6 -46 -4 -50 15 -50 16 0 19 4 14 23 -3 12 -6 39
-6 59 0 36 -2 38 -52 53 -59 17 -60 17 -110 1z"/>
<path d="M50 142 c0 -16 31 -50 50 -55 21 -5 70 26 70 45 0 6 -14 8 -32 6 -18
-3 -45 -2 -60 3 -16 4 -28 4 -28 1z"/>
<path d="M32 60 c-12 -12 -22 -30 -22 -40 0 -17 7 -20 50 -20 55 0 59 6 33 51
-20 34 -32 36 -61 9z"/>
<path d="M136 58 c-31 -43 -21 -58 35 -58 48 0 50 1 43 23 -8 28 -33 57 -50
57 -7 0 -20 -10 -28 -22z"/>
<path d="M105 60 c3 -5 8 -10 11 -10 2 0 4 5 4 10 0 6 -5 10 -11 10 -5 0 -7
-4 -4 -10z"/>
</g>
</svg>
