<svg width="207" height="173" viewBox="0 0 207 173" fill="none" xmlns="http://www.w3.org/2000/svg">
<path d="M147.831 84.5399C146.197 79.6146 139.681 61.4444 139.74 60.7939C139.799 60.1434 140.935 57.7975 141.099 57.1531C141.099 57.1531 138.201 55.0624 137.89 54.8885C137.077 55.7846 136.333 56.7233 135.663 57.6989C136.077 58.4774 138.284 60.4029 138.284 60.9115C138.284 61.3276 137.192 77.933 137.133 84.5399H147.831Z" fill="#38A1FF"/>
<path d="M92.9936 68.6412C87.1304 70.5018 75.409 75.249 73.5108 74.2637C66.0691 70.4205 66.7781 51.3966 38.2949 50.7452C40.2614 54.386 47.4909 94.4398 48.263 98.5097C51.2914 97.0392 60.1386 95.0047 64.4142 94.4589C64.4877 93.3854 64.585 91.7912 64.6295 90.2403C59.8416 87.5112 51.9248 78.5991 49.4584 74.1556C49.0444 73.4056 49.8217 73.2439 50.1405 73.6902C52.4372 76.9089 60.3704 88.1357 67.5906 89.819C74.3388 91.389 85.0107 87.077 100.041 75.6633C100.424 73.0449 94.7676 68.8333 92.9936 68.6412Z" fill="#38A1FF"/>
<path d="M21.0352 116.535C26.0964 117.4 75.5073 116.689 77.6673 116.535C80.3852 116.342 87.445 102.335 88.333 100.1C89.3194 97.6204 91.3914 92.7219 81.3706 93.4009C70.8829 94.1111 57.5304 96.4587 47.5105 100.224C44.0588 83.7674 38.6851 55.9144 37.6159 52.3359C36.0945 47.2428 33.7864 45.909 30.0087 45.5552C26.2309 45.2014 15.9058 45.2827 10.4875 45.3632C5.06932 45.4436 4.9358 49.4451 5.29184 53.8618C6.23576 65.5791 11.2296 101.626 12.2263 107.73C13.223 113.833 15.973 115.674 21.0352 116.535ZM81.2298 96.6914C83.9612 96.5764 86.3624 96.3454 85.0821 99.75C84.1785 102.151 79.5748 112.237 76.3084 112.261C69.6285 112.312 51.2521 112.889 50.3827 112.299C50.1208 112.126 49.2617 108.478 48.1057 103.075C57.5148 99.9075 78.5202 96.8056 81.2298 96.6914Z" fill="#191919"/>
<path d="M201.122 146.683C136.935 146.976 71.2299 147.393 6.59106 147.415C5.84897 147.415 5.84897 148.588 6.62832 148.588C70.4154 148.565 136.876 148.405 200.959 148.116C201.991 148.111 202.169 146.678 201.122 146.683Z" fill="#191919"/>
<path d="M128.718 38.8964C128.727 39.5166 130.064 39.6213 129.668 38.2762C129.521 37.7736 128.699 37.6992 128.718 38.8964Z" fill="#191919"/>
<path d="M132.997 43.7976C134.686 45.5371 137.393 44.3737 136.544 41.6636C136.063 40.1248 135.706 40.9189 135.194 41.5148C134.698 42.0402 134.049 42.4503 133.309 42.706C132.885 42.8487 132.245 43.0199 132.997 43.7976ZM135.743 42.11C136.003 43.5433 134.905 44.5917 133.695 43.3504C134.521 43.1328 135.238 42.6977 135.743 42.11Z" fill="#191919"/>
<path d="M129.608 34.8154C129.3 34.835 129.008 34.9388 128.777 35.1108C128.547 35.2827 128.39 35.5133 128.332 35.7669C128.185 36.4183 128.777 36.3127 128.94 36.1077C129.202 35.8551 129.545 35.6702 129.928 35.5749C130.41 35.4296 130.559 34.7514 129.608 34.8154Z" fill="#191919"/>
<path d="M134.388 37.7139C134.03 36.951 133.193 37.7857 133.511 38.6006C133.786 39.2978 134.971 38.9535 134.388 37.7139Z" fill="#191919"/>
<path d="M131.159 38.0599C130.922 38.7243 130.422 40.9413 131.056 41.5398C131.512 41.9723 132.951 41.7535 133.364 41.385C133.647 41.1324 133.445 40.8331 133.059 40.9136C132.633 41.0025 132.193 41.0401 131.753 41.0252C131.385 38.6109 132.074 37.9786 131.546 37.8506C131.504 37.8403 131.46 37.8377 131.417 37.843C131.373 37.8482 131.332 37.8613 131.295 37.8811C131.259 37.901 131.227 37.9273 131.204 37.9581C131.18 37.989 131.165 38.0237 131.159 38.0599Z" fill="#191919"/>
<path d="M133.853 34.6666C133.25 34.7886 133.259 35.4001 133.75 35.4356C134.24 35.4735 134.702 35.6407 135.071 35.9131C135.565 36.2703 135.814 35.8568 135.739 35.5783C135.622 35.2546 135.362 34.9802 135.012 34.8109C134.662 34.6416 134.247 34.59 133.853 34.6666Z" fill="#191919"/>
<path d="M128.613 84.3167C127.638 80.0367 126.992 75.1771 126.312 69.0192C126.262 68.5668 125.316 68.61 125.34 69.0815C125.668 74.2165 126.375 79.3297 127.456 84.392C127.563 84.93 128.739 84.8686 128.613 84.3167Z" fill="#191919"/>
<path d="M159.869 84.5831C160.424 80.3161 159.208 72.5363 157.36 69.2795C157.306 69.2083 157.223 69.155 157.127 69.1287C157.031 69.1025 156.927 69.1048 156.832 69.1353C156.738 69.1659 156.659 69.2227 156.609 69.2963C156.559 69.3699 156.541 69.4556 156.558 69.539C158.652 76.2938 158.544 79.298 158.785 84.4266C158.808 84.9309 159.795 85.148 159.869 84.5831Z" fill="#191919"/>
<path d="M117.732 84.2112C118.223 77.2445 118.195 67.3576 121.696 61.1728C124.473 56.2665 129.437 55.5339 132.437 52.0479C132.954 52.7858 135.709 54.8696 136.807 55.1118C136.362 56.1695 135.716 57.1603 134.893 58.0459C133.499 57.0455 132.297 55.8718 131.33 54.566C130.946 54.0418 130.295 54.2684 130.64 54.9509C131.535 56.3407 132.699 57.5974 134.084 58.6704C134.258 58.8384 134.504 58.9419 134.769 58.9581C135.034 58.9743 135.296 58.9019 135.497 58.7569C136.481 57.749 137.287 56.6284 137.891 55.4292C138.853 56.3241 139.951 57.1093 141.158 57.7647C141.372 57.8833 141.629 57.9368 141.886 57.9165C142.142 57.8963 142.383 57.8033 142.567 57.6531C144.052 56.661 147.535 53.1621 148.149 51.6492C148.453 50.9044 147.881 50.6804 147.348 51.4693C145.936 53.5605 144.083 55.4204 141.877 56.9586C140.666 56.3735 139.559 55.649 138.59 54.8064C141.57 53.3065 144.158 51.3188 146.197 48.9625C150.035 51.6552 157.923 51.3516 164.404 56.5494C169.34 60.5076 171.81 67.8714 172.509 73.4221C172.96 77.0403 172.978 80.687 172.561 84.3081C172.491 84.9283 173.627 85.1212 173.7 84.495C174.192 80.7456 174.21 76.9634 173.752 73.211C173.001 67.3584 170.434 60.1919 165.358 56.0036C158.941 50.7089 152.333 51.5367 146.979 48.3423C146.326 47.9522 145.91 47.7264 145.339 48.3795C142.719 51.3819 141.013 52.3585 137.442 54.4033C135.938 53.663 134.587 52.7245 133.442 51.6241C132.537 50.7591 132.01 50.8863 131.46 51.5125C127.637 55.8591 120.921 55.0417 118.411 66.65C117.376 71.4205 116.296 79.5091 116.66 84.2095C116.66 84.3279 116.716 84.4414 116.817 84.5251C116.917 84.6088 117.053 84.6558 117.194 84.6558C117.336 84.6558 117.472 84.6088 117.572 84.5251C117.672 84.4414 117.732 84.3296 117.732 84.2112Z" fill="#191919"/>
<path d="M86.2032 86.903C121.006 87.2439 156.997 86.903 192.084 86.8477C192.084 87.6037 192.039 88.3545 192.032 89.1053L143.631 89.6243C143.631 89.0474 143.578 88.4756 143.512 87.9064C143.496 87.7952 143.431 87.6928 143.331 87.6186C143.23 87.5444 143.101 87.5034 142.967 87.5034C142.833 87.5034 142.703 87.5444 142.603 87.6186C142.502 87.6928 142.438 87.7952 142.421 87.9064C142.346 88.4886 142.3 89.0725 142.265 89.6555C121.579 89.7056 100.96 89.268 80.2892 89.2334C79.3318 89.2334 79.4726 90.4072 80.401 90.4374C88.149 90.6848 95.9053 90.7904 103.662 90.8587C104.778 148.648 103.576 146.342 104.717 146.339C104.862 146.339 105.001 146.29 105.104 146.205C105.207 146.119 105.265 146.003 105.265 145.881C105.384 120.206 105.592 109.032 105.065 90.9028H142.176C142.013 109.251 142.995 125.022 142.614 145.242C142.609 145.395 142.677 145.544 142.803 145.655C142.929 145.766 143.102 145.83 143.286 145.835C143.469 145.839 143.646 145.782 143.779 145.677C143.912 145.571 143.99 145.426 143.994 145.273C144.368 127.336 143.32 109.407 143.653 90.9512L192.017 90.4236C192.151 108.661 192.789 126.959 192.938 145.204C192.944 145.992 194.427 146.116 194.422 145.31C194.311 126.421 193.539 107.031 193.397 86.6211C193.397 86.0571 193.397 85.5372 192.466 85.5424C157.106 85.7154 122.376 85.5424 86.1628 85.7405C85.9896 85.7578 85.8304 85.8286 85.7165 85.939C85.6026 86.0494 85.5422 86.1914 85.5473 86.3372C85.5523 86.4829 85.6224 86.6218 85.7438 86.7265C85.8652 86.8312 86.0291 86.8942 86.2032 86.903Z" fill="#191919"/>
<path d="M37.5873 135.945C37.9754 134.958 38.1358 122.797 37.9506 119.197C37.9019 119.067 37.8035 118.954 37.6705 118.876C37.5375 118.797 37.3773 118.757 37.2146 118.762C37.0518 118.767 36.8955 118.817 36.7697 118.903C36.6439 118.989 36.5555 119.108 36.5181 119.24C36.5181 122.1 35.8578 134.01 36.6289 135.952C36.6637 136.036 36.729 136.108 36.8155 136.159C36.9019 136.209 37.0053 136.236 37.111 136.236C37.2168 136.235 37.3195 136.206 37.405 136.154C37.4904 136.102 37.5541 136.029 37.5873 135.945Z" fill="#191919"/>
<path d="M107.111 125.288C108.857 125.548 136.118 125.425 140.423 125.425C141.388 125.425 141.469 124.185 140.497 124.185C132.199 124.185 114.474 124.408 107.163 124.358C106.622 124.387 106.526 125.201 107.111 125.288Z" fill="#191919"/>
<path d="M140.393 106.077C141.277 106.07 141.21 104.924 140.334 104.924C130.388 104.924 115.391 105.225 106.704 105.315C106.117 105.321 105.962 106.212 106.607 106.266C109.91 106.524 134.654 106.123 140.393 106.077Z" fill="#191919"/>
<path d="M41.9577 44.4298C41.5196 46.2127 40.9647 47.9742 40.2955 49.7063C40.0967 50.2487 41.3036 50.4753 41.4681 49.9295C42.0986 48.1868 42.5487 46.4021 42.8136 44.595C42.8385 44.1755 42.0519 44.0155 41.9577 44.4298Z" fill="#191919"/>
<path d="M42.4631 43.6418C43.1535 44.0207 46.3744 43.3875 48.0076 42.3392C49.9224 44.2006 51.0526 43.3062 50.3312 42.7717C46.2192 39.7381 51.0557 35.9027 52.2232 39.0003C52.3774 39.4103 52.8442 39.4466 53.2582 39.0807C54.3698 38.0877 57.0732 33.2627 55.7298 31.7861C54.3863 30.3096 50.4513 30.0613 47.3721 30.6452C46.4022 30.8973 45.3595 30.8726 44.4082 30.5751C43.4569 30.2776 42.651 29.7241 42.1174 29.0017C40.7409 27.1229 34.4419 39.2485 42.4631 43.6418Z" fill="#191919"/>
<path d="M43.7694 29.0769C45.4326 27.5571 46.4946 26.5805 49.0479 25.8946C56.4161 23.9155 63.3878 29.4489 62.7648 35.8758C62.5188 37.036 62.3721 38.2093 62.3259 39.3869C62.5307 40.4791 62.6476 41.5815 62.6757 42.6868C61.8477 42.6375 60.7455 42.5138 60.1918 43.109C59.9425 43.6068 59.8043 44.1386 59.784 44.6781C57.7647 44.6781 56.7193 43.0216 56.4958 44.0579C56.452 44.6838 56.6211 45.3072 56.9836 45.8562C57.3461 46.4051 57.8871 46.8571 58.544 47.1598C57.0598 50.1985 55.8841 50.5073 51.0403 46.9547C50.5859 46.6209 48.7767 46.812 52.6735 49.2556C52.3987 50.2136 52.311 51.2023 52.4137 52.1837C52.4748 52.7485 53.3535 52.9042 53.3711 52.265C53.3852 51.451 53.4919 50.64 53.6899 49.843C56.6593 51.4372 58.6734 49.8387 59.4424 48.2047C59.7353 47.5836 60.2704 46.6901 59.3606 46.3441C58.5565 46.0455 57.8955 45.5301 57.4832 44.8805C58.2998 45.364 60.4505 46.005 60.7041 45.2524C60.8738 44.7499 61.0529 43.7015 61.0529 43.7015C63.7439 44.0302 64.3939 44.2205 63.7252 39.7009C63.5545 38.5469 64.0223 37.3809 64.1558 35.8611C64.782 28.6963 57.3372 22.8757 48.6204 24.8376C47.4115 25.0982 46.279 25.5626 45.2924 26.2022C44.3059 26.8419 43.4861 27.6432 42.8834 28.5571C42.8377 28.6542 42.8323 28.7614 42.8683 28.8614C42.9042 28.9614 42.9793 29.0484 43.0816 29.1084C43.1838 29.1684 43.3073 29.1979 43.432 29.1922C43.5568 29.1865 43.6756 29.1459 43.7694 29.0769Z" fill="#191919"/>
<path d="M60.2688 36.5454C59.9914 35.4157 57.3708 36.7815 57.3967 37.8922C57.4225 39.0028 58.4503 37.1751 59.534 37.1414C59.7565 37.1344 60.4199 37.1595 60.2688 36.5454Z" fill="#191919"/>
<path d="M58.9026 39.0453C58.0684 40.7692 59.4294 40.9561 59.6458 40.1309C60.0981 38.4009 59.0806 38.6794 58.9026 39.0453Z" fill="#191919"/>
<path d="M24.5822 140.766C22.683 141.255 23.3723 144.816 24.486 145.554C25.5996 146.293 27.7234 145.61 27.6106 143.738C27.5371 142.515 26.409 140.294 24.5822 140.766ZM24.961 143.755C24.7768 143.284 24.575 141.679 25.1835 141.939C25.6982 142.313 26.0331 142.831 26.1264 143.396C26.3634 144.407 25.4909 145.107 24.961 143.755Z" fill="#191919"/>
<path d="M43.6583 141.553C40.8742 140.437 40.1787 145.888 43.0197 146.367C45.9974 146.868 45.6093 142.336 43.6583 141.553ZM42.5146 144.252C42.2994 143.3 42.4701 142.651 42.9286 142.546C43.3872 142.44 43.8426 143.712 43.8043 144.506C43.7618 145.442 42.7372 145.238 42.5146 144.252Z" fill="#191919"/>
<path d="M73.7951 143.59C73.7299 145.278 75.1809 147.143 77.5066 145.272C78.909 144.143 78.8521 141.594 77.046 140.929C75.0536 140.194 73.8468 142.179 73.7951 143.59ZM76.5637 144.354C75.6581 145.246 75.2016 144.577 75.1903 143.844C75.1841 143.392 75.5173 141.432 76.4819 142.052C76.8197 142.365 77.0131 142.768 77.0275 143.189C77.0419 143.611 76.8795 144.025 76.5637 144.354Z" fill="#191919"/>
<path d="M73.2141 140.896C66.6954 137.83 59.3247 136.255 51.8455 136.33C44.9348 136.409 34.0838 137.999 27.7745 140.461C27.6607 140.521 27.5752 140.612 27.5327 140.718C27.4902 140.825 27.4933 140.94 27.5415 141.045C27.5896 141.15 27.6799 141.238 27.7968 141.293C27.9136 141.348 28.0499 141.368 28.1823 141.349C34.5626 139.446 41.2044 138.222 47.9508 137.707C47.4012 137.987 44.9337 139.471 44.3355 140.486C43.8936 141.238 44.4628 141.448 45.3705 140.803C46.4997 139.997 49.4681 138.147 51.7689 137.651C53.5544 138.559 55.2408 139.597 56.8083 140.753C58.0845 141.675 58.9476 141.093 57.7729 140.061C56.7803 139.196 55.6501 138.442 54.5893 137.629C60.9591 137.895 67.1797 139.336 72.8053 141.847C73.6509 142.231 74.0721 141.297 73.2141 140.896Z" fill="#191919"/>
<path d="M58.1759 143.991C57.8654 146.471 61.1515 147.245 62.3542 144.915C62.5767 144.47 62.6839 143.991 62.6685 143.508C62.6532 143.026 62.5157 142.552 62.2651 142.118C61.3067 140.412 58.6002 140.649 58.1759 143.991ZM61.1442 144.27C60.6474 145.232 59.5524 145.759 59.5638 144.164C59.57 143.178 60.1123 142.018 60.8058 142.348C61.4992 142.677 61.3554 143.843 61.1329 144.271L61.1442 144.27Z" fill="#191919"/>
<path d="M134.01 31.2914C134.01 32.7057 137.602 34.0334 138.916 33.4072C138.578 34.157 138.473 34.9661 138.61 35.759C138.748 36.5519 139.123 37.3028 139.702 37.9415C140.374 38.6387 140.699 37.3153 141.751 37.5324C143.127 37.8161 142.842 41.0313 141.558 41.1117C140.75 41.1619 141.098 41.8747 141.098 41.8747C141.956 44.1853 142.628 46.5414 143.109 48.927C143.124 49.0178 143.178 49.1011 143.26 49.1613C143.343 49.2216 143.449 49.2548 143.559 49.2548C143.668 49.2548 143.774 49.2216 143.857 49.1613C143.939 49.1011 143.993 49.0178 144.008 48.927C144.175 47.9513 142.782 43.045 142.196 42.007C143.681 41.5667 143.926 39.6127 143.749 38.4605C147.252 36.0662 146.139 30.2975 142.353 30.5086C144.306 27.0408 138.68 25.4526 137.507 27.5676C135.954 24.752 129.913 25.0867 129.342 27.7847C128.354 26.4517 123.412 26.2216 123.716 29.4282C124.088 33.3691 131.597 33.5248 134.01 31.2914Z" fill="#191919"/>
<path d="M134.819 50.3171C134.883 49.5974 134.878 48.8656 134.908 48.1459C135.433 48.0935 135.94 47.9507 136.396 47.7265C136.852 47.5023 137.248 47.2015 137.558 46.8432C137.605 46.8033 137.641 46.7556 137.665 46.7033C137.689 46.6509 137.7 46.595 137.697 46.539C137.693 46.4831 137.676 46.4283 137.647 46.3781C137.617 46.3279 137.575 46.2834 137.523 46.2474C137.472 46.2115 137.412 46.1848 137.348 46.1691C137.283 46.1534 137.216 46.149 137.149 46.1562C137.083 46.1635 137.019 46.1821 136.961 46.211C136.904 46.2399 136.854 46.2785 136.816 46.3242C136.107 46.8767 135.203 47.2229 134.239 47.3112C129.235 47.8163 127.631 43.0121 127.56 39.7554C127.511 37.522 127.908 35.0412 128.027 33.4591C128.027 33.0127 127.234 33.0067 127.122 33.4219C126.787 35.5256 126.616 37.6453 126.609 39.7675C126.601 43.66 128.294 48.3526 133.883 48.2289C133.873 49.0238 133.804 49.8174 133.676 50.6051C133.553 51.4372 134.695 51.7062 134.819 50.3171Z" fill="#191919"/>
<path d="M48.4076 135.546C50.69 135.386 52.9842 135.386 55.2666 135.546C55.2666 134.491 55.2666 121.898 55.1248 117.861H48.4449C48.4822 119.941 48.3414 129.668 48.4076 135.546Z" fill="#191919"/>
<path d="M76.3759 111.207C78.1571 110.463 85.3711 99.2968 83.6416 97.9258C81.9121 96.5548 52.3277 102.702 49.499 103.721C49.6336 104.392 50.9842 110.382 51.3703 111.482C55.2816 111.598 74.5947 111.952 76.3759 111.207Z" fill="#191919"/>
<path d="M83.9094 120.412C82.9309 118.781 81.7912 117.221 80.5022 115.748C79.8957 116.535 79.0342 117.16 78.0182 117.553C74.0746 117.905 70.1046 118.007 66.1426 117.857C67.0327 121.058 70.6397 132.285 71.5753 137.416C76.3575 137.393 81.1337 137.13 85.878 136.628C85.5644 135.373 84.7177 125.351 83.9094 120.412Z" fill="#191919"/>
<path d="M78.9955 145.858C81.1483 145.983 88.2287 145.523 91.1609 145.474C91.25 145.482 91.3401 145.474 91.4253 145.451C91.5105 145.428 91.589 145.39 91.6557 145.34C91.7223 145.29 91.7756 145.229 91.8121 145.161C91.8485 145.092 91.8674 145.018 91.8674 144.943C91.8674 144.868 91.8485 144.794 91.8121 144.726C91.7756 144.658 91.7223 144.596 91.6557 144.546C91.589 144.496 91.5105 144.458 91.4253 144.435C91.3401 144.412 91.25 144.405 91.1609 144.413C88.1956 144.64 81.111 144.723 79.0027 145.033C78.8974 145.06 78.8051 145.114 78.7393 145.188C78.6735 145.262 78.6375 145.351 78.6367 145.443C78.6359 145.535 78.6703 145.625 78.7348 145.7C78.7993 145.774 78.8907 145.83 78.9955 145.858Z" fill="#191919"/>
<path d="M94.9388 139.103C94.48 140.346 94.1303 141.614 93.8924 142.899C93.3418 145.735 94.5134 146.099 97.7375 146.255C99.2216 146.328 100.706 146.255 102.243 146.255C103.081 146.255 103.304 145.217 102.295 145.217C92.786 145.217 94.7308 145.701 96.0225 139.325C96.0395 139.265 96.0424 139.204 96.0309 139.143C96.0195 139.083 95.9939 139.025 95.9556 138.973C95.9174 138.921 95.8672 138.875 95.808 138.839C95.7488 138.803 95.6817 138.778 95.6105 138.763C95.5394 138.749 95.4656 138.747 95.3933 138.756C95.321 138.766 95.2517 138.787 95.1894 138.819C95.127 138.851 95.0728 138.893 95.0298 138.943C94.9868 138.992 94.9559 139.044 94.9388 139.103Z" fill="#191919"/>
<path d="M92.8081 140.852C90.8474 139.628 88.7133 138.611 86.4543 137.825C86.3913 137.799 86.3229 137.784 86.2529 137.78C86.1829 137.776 86.1127 137.784 86.0463 137.803C85.9799 137.821 85.9186 137.851 85.8659 137.89C85.8131 137.928 85.7701 137.975 85.7391 138.028C85.1574 139.012 89.4527 139.835 91.9491 141.661C92.0774 141.756 92.2457 141.805 92.417 141.796C92.5883 141.788 92.7486 141.723 92.8625 141.616C92.9764 141.508 93.0347 141.368 93.0245 141.225C93.0143 141.081 92.9365 140.947 92.8081 140.852Z" fill="#191919"/>
<path d="M103.022 118.08C99.7931 109.396 94.4049 99.2535 90.1075 98.9637C88.6999 103.391 82.8004 113.142 81.0596 114.712C85.2824 118.905 91.0991 130.536 94.1451 138.284C97.1265 138.317 100.106 138.138 103.051 137.75C103.149 130.902 103.149 124.494 103.022 118.08Z" fill="#191919"/>
<path d="M76.0485 70.3159C78.0636 70.5866 83.3297 70.9776 84.1608 70.7691C84.6587 70.6437 84.3088 70.0261 83.8938 69.9681C81.1076 69.5798 78.3048 69.5469 76.5308 69.3479C79.79 60.896 83.9538 52.8109 87.1675 44.5354C93.5576 44.3373 101.269 44.5787 108.128 44.6531C105.99 49.8431 103.414 56.9983 101.09 61.9107C100.874 62.3691 101.832 62.5309 102.04 62.1338C103.236 60.1919 107.591 49.5221 108.768 46.6261C109.302 45.3165 110.2 43.5986 107.974 43.5242C103.677 43.3876 91.7412 43.1704 87.2886 43.5242C86.0466 43.6237 86.1066 43.6358 85.7227 44.5977C82.4386 52.8074 79.0345 61.0422 75.3313 69.0876C74.9928 69.8341 74.94 70.1671 76.0485 70.3159Z" fill="#191919"/>
<path d="M81.9647 62.2514C81.4668 62.376 81.3696 63.0117 81.8974 63.0956C82.7057 63.2237 89.6837 64.0627 90.1888 63.9018C90.6939 63.7409 90.5686 63.279 90.2623 63.0515C89.7903 62.7012 82.9034 62.0161 81.9647 62.2514Z" fill="#191919"/>
<path d="M83.805 58.5675C83.1592 58.6159 83.0629 59.5025 83.7388 59.5475C88.3114 59.852 93.149 60.2499 97.7113 60.4774C98.5051 60.5172 98.796 59.5432 97.9566 59.423C95.9797 59.141 86.1359 58.3876 83.805 58.5675Z" fill="#191919"/>
<path d="M92.4739 48.8214C92.7407 48.665 92.9442 48.4444 93.0574 48.189C93.1706 47.9336 93.188 47.6554 93.1075 47.3915C93.0269 47.1276 92.8522 46.8904 92.6064 46.7115C92.3607 46.5326 92.0556 46.4204 91.7318 46.3899C89.8336 46.236 88.7696 47.331 89.2478 48.369C89.6369 49.2237 91.0704 49.6397 92.4739 48.8214Z" fill="#191919"/>
<path d="M85.186 55.8789C89.8021 56.1921 94.2857 56.2396 98.9515 56.6479C99.7308 56.7163 99.9534 55.7129 99.1668 55.6376C97.2665 55.4542 87.0304 54.6671 85.1084 55.0537C84.5919 55.1549 84.7337 55.8443 85.186 55.8789Z" fill="#191919"/>
<path d="M95.6068 52.3888C97.3205 52.6431 99.0632 52.7345 100.801 52.6612C101.642 52.6214 101.618 51.5817 100.661 51.5203C98.687 51.394 97.2991 51.4087 95.7849 51.3966C95.6487 51.4092 95.5215 51.4591 95.4228 51.5385C95.3241 51.6179 95.2596 51.7223 95.2393 51.8355C95.219 51.9487 95.244 52.0643 95.3105 52.1644C95.377 52.2644 95.4811 52.3433 95.6068 52.3888Z" fill="#191919"/>
<path d="M86.0771 52.5375C88.4202 52.7284 90.7734 52.8197 93.1276 52.8108C94.353 49.1441 86.6185 49.1259 86.0771 52.5375Z" fill="#191919"/>
<path d="M97.5222 62.5801C97.87 62.325 97.693 61.7316 97.1579 61.8172C95.8774 62.0905 94.6776 62.5804 93.6327 63.2566C92.8389 64.1216 93.5509 67.0712 94.2786 68.0513C95.0062 69.0313 95.4988 68.2511 95.3767 67.9276C95.1014 67.1975 94.409 64.3716 94.7308 63.9486C94.9151 63.702 96.5907 63.2652 97.5222 62.5801Z" fill="#191919"/>
<path d="M102.495 49.2627C102.647 49.2292 102.782 49.1566 102.881 49.0551C102.981 48.9536 103.039 48.8285 103.048 48.6977C103.057 48.5668 103.016 48.437 102.931 48.3267C102.847 48.2164 102.722 48.1314 102.576 48.0837C95.9408 47.2714 95.7255 48.8094 96.5649 48.9772C97.4043 49.145 100.046 49.1009 102.495 49.2627Z" fill="#191919"/>
<path d="M104.342 58.6851C103.677 60.2758 104.452 61.5673 102.702 62.7047C101.229 63.5214 99.6073 64.1331 97.9003 64.5161C97.4863 64.6354 96.8653 66.1345 101.121 64.6026C105.03 63.1961 104.838 62.4331 105.233 58.7474C105.281 58.301 104.5 58.3071 104.342 58.6851Z" fill="#191919"/>
<path d="M103.668 64.2695C102.924 66.6267 103.451 69.86 99.8526 72.0295C99.1705 72.4403 100.002 73.4022 100.817 72.904C103.851 71.0503 104.967 67.2815 104.528 64.3007C104.502 64.2236 104.448 64.1552 104.373 64.1054C104.299 64.0556 104.207 64.0269 104.111 64.0234C104.016 64.02 103.921 64.0419 103.841 64.0861C103.762 64.1304 103.701 64.1946 103.668 64.2695Z" fill="#191919"/>
<path d="M175.143 84.4655C177.207 84.347 180.866 84.5027 183.91 84.4655C184.474 81.4069 186.497 67.9155 187.101 64.7435C187.704 61.5716 185.973 61.1771 182.885 61.1391C179.798 61.101 177.259 61.1019 171.255 61.1391C176.086 69.9128 175.522 80.7434 175.143 84.4655Z" fill="#191919"/>
</svg>
